<?xml version="1.0" encoding="utf-8"?>
<!-- Generator: Adobe Illustrator 17.0.0, SVG Export Plug-In . SVG Version: 6.00 Build 0)  -->
<!DOCTYPE svg PUBLIC "-//W3C//DTD SVG 1.1//EN" "http://www.w3.org/Graphics/SVG/1.1/DTD/svg11.dtd">
<svg version="1.1" id="Layer_1" xmlns="http://www.w3.org/2000/svg" xmlns:xlink="http://www.w3.org/1999/xlink" x="0px" y="0px"
	 width="100%" height="100%" viewBox="0 0 74.572 16.592" enable-background="new 0 0 74.572 16.592" xml:space="preserve">
<g>
	<path fill-rule="evenodd" clip-rule="evenodd" d="M72.296,7.402c0.01-0.57-0.12-1.06-0.39-1.47c-0.34-0.53-0.86-0.79-1.57-0.79
		c-0.64,0-1.17,0.25-1.57,0.77c-0.32,0.42-0.52,0.91-0.58,1.49H72.296z M74.176,7.892c0,0.29-0.02,0.58-0.07,0.87h-5.92
		c0.02,0.85,0.31,1.49,0.86,1.94c0.5,0.4,1.14,0.6,1.93,0.6c0.88,0,1.68-0.13,2.4-0.4l0.31,1.32c-0.84,0.35-1.84,0.53-2.98,0.53
		c-1.38,0-2.46-0.39-3.24-1.17c-0.79-0.79-1.18-1.84-1.18-3.16c0-1.29,0.37-2.37,1.1-3.23c0.76-0.91,1.8-1.37,3.1-1.37
		c1.28,0,2.25,0.46,2.91,1.37C73.916,5.922,74.176,6.822,74.176,7.892z M65.356,5.682c-0.21-0.03-0.41-0.05-0.62-0.05
		c-0.7,0-1.23,0.25-1.61,0.76c-0.33,0.45-0.49,1.01-0.49,1.7v4.5h-1.97v-5.88c0-0.9-0.02-1.8-0.06-2.7h1.72l0.07,1.64h0.05
		c0.21-0.56,0.54-1.02,0.99-1.36c0.41-0.3,0.91-0.46,1.42-0.46c0.19,0,0.35,0.01,0.5,0.03V5.682z M56.896,8.272
		c0-0.78-0.17-1.46-0.53-2.02c-0.41-0.69-1-1.03-1.77-1.03c-0.79,0-1.39,0.34-1.81,1.03c-0.35,0.56-0.53,1.25-0.53,2.06
		c0,0.78,0.18,1.46,0.53,2.02c0.43,0.68,1.02,1.03,1.8,1.03c0.75,0,1.34-0.35,1.77-1.04C56.716,9.742,56.896,9.062,56.896,8.272z
		 M58.946,8.232c0,1.32-0.39,2.4-1.17,3.25c-0.82,0.87-1.9,1.3-3.25,1.3c-1.31,0-2.34-0.41-3.12-1.25
		c-0.77-0.83-1.16-1.89-1.16-3.16c0-1.33,0.4-2.42,1.2-3.27c0.8-0.84,1.87-1.27,3.22-1.27c1.31,0,2.35,0.42,3.14,1.26
		C58.566,5.902,58.946,6.942,58.946,8.232z M49.156,5.442h-2.17v4.16c0,1.06,0.38,1.59,1.15,1.59c0.35,0,0.64-0.03,0.87-0.09
		l0.06,1.45c-0.39,0.14-0.9,0.21-1.54,0.21c-0.78,0-1.38-0.23-1.82-0.69s-0.66-1.23-0.66-2.31v-4.33h-1.3v-1.43h1.3v-1.57l1.94-0.56
		v2.13h2.17V5.442z M42.616,9.252c0,1.01-0.36,1.84-1.09,2.47c-0.8,0.7-1.92,1.05-3.35,1.05c-1.33,0-2.39-0.25-3.19-0.75l0.45-1.58
		c0.87,0.49,1.82,0.74,2.85,0.74c0.75,0,1.32-0.17,1.74-0.49c0.41-0.32,0.62-0.75,0.62-1.3c0-0.48-0.17-0.88-0.51-1.21
		c-0.34-0.33-0.91-0.64-1.7-0.92c-2.16-0.78-3.23-1.92-3.23-3.41c0-0.98,0.38-1.78,1.14-2.4c0.76-0.63,1.77-0.94,3.02-0.94
		c1.12,0,2.05,0.19,2.79,0.57l-0.49,1.55c-0.7-0.36-1.49-0.55-2.37-0.55c-0.69,0-1.24,0.17-1.63,0.5c-0.33,0.29-0.49,0.65-0.49,1.08
		c0,0.47,0.19,0.86,0.56,1.16c0.33,0.28,0.93,0.59,1.79,0.92c1.06,0.41,1.84,0.89,2.34,1.45C42.366,7.742,42.616,8.432,42.616,9.252
		z M29.196,8.262c0-0.83-0.2-1.52-0.59-2.06c-0.42-0.57-0.99-0.85-1.71-0.85c-0.49,0-0.93,0.16-1.33,0.47
		c-0.39,0.31-0.65,0.72-0.77,1.22c-0.06,0.24-0.09,0.43-0.09,0.58v1.44c0,0.62,0.19,1.15,0.59,1.58c0.39,0.43,0.91,0.64,1.54,0.64
		c0.75,0,1.32-0.28,1.74-0.83C28.986,9.902,29.196,9.172,29.196,8.262z M31.206,8.192c0,1.46-0.41,2.62-1.23,3.46
		c-0.74,0.76-1.65,1.13-2.74,1.13c-1.17,0-2.02-0.4-2.53-1.21v4.5h-1.97v-9.24c0-0.92-0.03-1.86-0.08-2.82h1.74l0.11,1.36h0.03
		c0.66-1.03,1.66-1.54,3-1.54c1.04,0,1.92,0.4,2.62,1.2C30.856,5.832,31.206,6.892,31.206,8.192z M18.986,8.262
		c0-0.83-0.19-1.52-0.58-2.06c-0.43-0.57-1-0.85-1.72-0.85c-0.49,0-0.93,0.16-1.32,0.47c-0.4,0.31-0.66,0.72-0.78,1.22
		c-0.05,0.19-0.08,0.39-0.09,0.58v1.44c0,0.62,0.2,1.15,0.59,1.58c0.4,0.43,0.91,0.64,1.55,0.64c0.74,0,1.32-0.28,1.73-0.83
		S18.986,9.172,18.986,8.262z M20.996,8.192c0,1.46-0.41,2.62-1.23,3.46c-0.73,0.76-1.65,1.13-2.74,1.13c-1.17,0-2.02-0.4-2.53-1.21
		v4.5h-1.97v-9.24c0-0.92-0.03-1.86-0.08-2.82h1.74l0.11,1.36h0.04c0.65-1.03,1.65-1.54,2.99-1.54c1.05,0,1.92,0.4,2.62,1.2
		C20.646,5.832,20.996,6.892,20.996,8.192z M7.226,7.632l-1.04-3.11c-0.11-0.32-0.32-1.07-0.62-2.24h-0.04
		c-0.12,0.5-0.32,1.25-0.58,2.24l-1.03,3.11H7.226z M10.826,12.592h-2.1l-1.15-3.5h-4l-1.1,3.5h-2.04l3.96-11.9h2.45L10.826,12.592z
		"/>
</g>
</svg>
