<?xml version="1.0" encoding="utf-8"?>
<!-- Generator: Adobe Illustrator 17.0.0, SVG Export Plug-In . SVG Version: 6.00 Build 0)  -->
<!DOCTYPE svg PUBLIC "-//W3C//DTD SVG 1.1//EN" "http://www.w3.org/Graphics/SVG/1.1/DTD/svg11.dtd">
<svg version="1.1" id="Layer_1" xmlns="http://www.w3.org/2000/svg" xmlns:xlink="http://www.w3.org/1999/xlink" x="0px" y="0px"
	 width="100%" height="100%" viewBox="0 0 1046.948 367.482" enable-background="new 0 0 1046.948 367.482"
	 xml:space="preserve">
<g>
	<g>
		<g>
			<rect x="286.88" y="112.317" fill="#0181B7" width="46.15" height="183.49"/>
			<rect x="294.42" y="99.167" fill="#0181B7" width="31.07" height="77.11"/>
			<rect x="301.34" y="90.817" fill="#0181B7" width="17.23" height="42.77"/>
			<polygon fill="#0181B7" points="315.83,112.797 304.08,112.797 304.08,83.647 308.32,83.647 312.52,83.647 315.83,83.647 			"/>
			<g>
				<polygon fill="#0181B7" points="309.18,100.107 307.91,100.107 307.91,70.957 308.37,70.957 308.82,70.957 309.18,70.957 				
					"/>
				<polygon fill="#0181B7" points="312,90.027 310.73,90.027 310.73,60.887 311.19,60.887 311.64,60.887 312,60.887 				"/>
			</g>
			<rect x="285.65" y="111.847" fill="#0181B7" width="48.61" height="1.96"/>
			<rect x="293.29" y="98.227" fill="#0181B7" width="33.33" height="1.88"/>
			<rect x="300.08" y="90.027" fill="#0181B7" width="19.21" height="1.45"/>
			<rect x="297.28" y="102.297" fill="#0181B7" width="1.44" height="8.08"/>
			<rect x="301.27" y="102.297" fill="#0181B7" width="1.45" height="8.08"/>
			<rect x="305.27" y="102.297" fill="#0181B7" width="1.44" height="8.08"/>
			<rect x="309.27" y="102.297" fill="#0181B7" width="1.44" height="8.08"/>
			<rect x="313.26" y="102.297" fill="#0181B7" width="1.45" height="8.08"/>
			<rect x="317.26" y="102.297" fill="#0181B7" width="1.44" height="8.08"/>
			<rect x="321.26" y="102.297" fill="#0181B7" width="1.44" height="8.08"/>
			<rect x="290.93" y="119.637" fill="#FFFFFF" width="3.49" height="9.58"/>
			<rect x="297.84" y="119.637" fill="#B0C3C2" width="3.49" height="9.58"/>
			<rect x="304.75" y="119.637" fill="#FFFFFF" width="3.49" height="9.58"/>
			<rect x="311.67" y="119.637" fill="#FFFFFF" width="3.49" height="9.58"/>
			<rect x="318.58" y="119.637" fill="#FFFFFF" width="3.49" height="9.58"/>
			<rect x="325.49" y="119.637" fill="#FFFFFF" width="3.49" height="9.58"/>
			<rect x="290.93" y="134.577" fill="#FFFFFF" width="3.49" height="9.59"/>
			<rect x="297.84" y="134.577" fill="#FFFFFF" width="3.49" height="9.59"/>
			<rect x="304.75" y="134.577" fill="#FFFFFF" width="3.49" height="9.59"/>
			<rect x="311.67" y="134.577" fill="#B0C3C2" width="3.49" height="9.59"/>
			<rect x="318.58" y="134.577" fill="#FFFFFF" width="3.49" height="9.59"/>
			<rect x="325.49" y="134.577" fill="#FFFFFF" width="3.49" height="9.59"/>
			<rect x="290.93" y="149.517" fill="#FFFFFF" width="3.49" height="9.59"/>
			<rect x="297.84" y="149.517" fill="#FFFFFF" width="3.49" height="9.59"/>
			<rect x="304.75" y="149.517" fill="#FFFFFF" width="3.49" height="9.59"/>
			<rect x="311.67" y="149.517" fill="#FFFFFF" width="3.49" height="9.59"/>
			<rect x="318.58" y="149.517" fill="#B0C3C2" width="3.49" height="9.59"/>
			<rect x="325.49" y="149.517" fill="#B0C3C2" width="3.49" height="9.59"/>
			<rect x="290.93" y="164.457" fill="#B0C3C2" width="3.49" height="9.59"/>
			<rect x="297.84" y="164.457" fill="#FFFFFF" width="3.49" height="9.59"/>
			<rect x="304.75" y="164.457" fill="#FFFFFF" width="3.49" height="9.59"/>
			<rect x="311.67" y="164.457" fill="#FFFFFF" width="3.49" height="9.59"/>
			<rect x="318.58" y="164.457" fill="#FFFFFF" width="3.49" height="9.59"/>
			<rect x="325.49" y="164.457" fill="#FFFFFF" width="3.49" height="9.59"/>
			<rect x="290.93" y="179.407" fill="#FFFFFF" width="3.49" height="9.58"/>
			<rect x="297.84" y="179.407" fill="#B0C3C2" width="3.49" height="9.58"/>
			<rect x="304.75" y="179.407" fill="#FFFFFF" width="3.49" height="9.58"/>
			<rect x="311.67" y="179.407" fill="#B0C3C2" width="3.49" height="9.58"/>
			<rect x="318.58" y="179.407" fill="#FFFFFF" width="3.49" height="9.58"/>
			<rect x="325.49" y="179.407" fill="#FFFFFF" width="3.49" height="9.58"/>
			<rect x="290.93" y="194.347" fill="#B0C3C2" width="3.49" height="9.58"/>
			<rect x="297.84" y="194.347" fill="#B0C3C2" width="3.49" height="9.58"/>
			<rect x="304.75" y="194.347" fill="#B0C3C2" width="3.49" height="9.58"/>
			<rect x="311.67" y="194.347" fill="#FFFFFF" width="3.49" height="9.58"/>
			<rect x="318.58" y="194.347" fill="#FFFFFF" width="3.49" height="9.58"/>
			<rect x="325.49" y="194.347" fill="#B0C3C2" width="3.49" height="9.58"/>
			<rect x="290.93" y="209.287" fill="#B0C3C2" width="3.49" height="9.59"/>
			<rect x="297.84" y="209.287" fill="#B0C3C2" width="3.49" height="9.59"/>
			<rect x="304.75" y="209.287" fill="#B0C3C2" width="3.49" height="9.59"/>
			<rect x="311.67" y="209.287" fill="#FFFFFF" width="3.49" height="9.59"/>
			<rect x="318.58" y="209.287" fill="#FFFFFF" width="3.49" height="9.59"/>
			<rect x="325.49" y="209.287" fill="#FFFFFF" width="3.49" height="9.59"/>
			<rect x="290.93" y="224.227" fill="#B0C3C2" width="3.49" height="9.59"/>
			<rect x="297.84" y="224.227" fill="#B0C3C2" width="3.49" height="9.59"/>
			<rect x="304.75" y="224.227" fill="#B0C3C2" width="3.49" height="9.59"/>
			<rect x="311.67" y="224.227" fill="#B0C3C2" width="3.49" height="9.59"/>
			<rect x="318.58" y="224.227" fill="#B0C3C2" width="3.49" height="9.59"/>
			<rect x="325.49" y="224.227" fill="#B0C3C2" width="3.49" height="9.59"/>
			<rect x="290.93" y="239.167" fill="#B0C3C2" width="3.49" height="9.59"/>
			<rect x="297.84" y="239.167" fill="#B0C3C2" width="3.49" height="9.59"/>
			<rect x="304.75" y="239.167" fill="#B0C3C2" width="3.49" height="9.59"/>
			<rect x="311.67" y="239.167" fill="#B0C3C2" width="3.49" height="9.59"/>
			<rect x="318.58" y="239.167" fill="#B0C3C2" width="3.49" height="9.59"/>
			<rect x="325.49" y="239.167" fill="#B0C3C2" width="3.49" height="9.59"/>
			<rect x="290.93" y="254.117" fill="#B0C3C2" width="3.49" height="9.58"/>
			<rect x="297.84" y="254.117" fill="#B0C3C2" width="3.49" height="9.58"/>
			<rect x="304.75" y="254.117" fill="#B0C3C2" width="3.49" height="9.58"/>
			<rect x="311.67" y="254.117" fill="#B0C3C2" width="3.49" height="9.58"/>
			<rect x="318.58" y="254.117" fill="#B0C3C2" width="3.49" height="9.58"/>
			<rect x="325.49" y="254.117" fill="#B0C3C2" width="3.49" height="9.58"/>
			<rect x="290.93" y="269.057" fill="#B0C3C2" width="3.49" height="9.58"/>
			<rect x="297.84" y="269.057" fill="#B0C3C2" width="3.49" height="9.58"/>
			<rect x="304.75" y="269.057" fill="#B0C3C2" width="3.49" height="9.58"/>
			<rect x="311.67" y="269.057" fill="#B0C3C2" width="3.49" height="9.58"/>
			<rect x="318.58" y="269.057" fill="#B0C3C2" width="3.49" height="9.58"/>
			<rect x="325.49" y="269.057" fill="#B0C3C2" width="3.49" height="9.58"/>
		</g>
		<g>
			<rect x="152.85" y="119.297" fill="#0181B7" width="74.18" height="154.58"/>
			<rect x="150.74" y="116.637" fill="#B0C3C2" width="78.4" height="4.37"/>
			<rect x="155.34" y="111.047" fill="#0181B7" width="69.2" height="20.77"/>
			<rect x="160.64" y="102.557" fill="#0181B7" width="27.4" height="22.68"/>
			<polygon fill="#0181B7" points="176.5,108.947 160.64,108.947 160.64,97.007 172.01,97.007 			"/>
			<rect x="167.03" y="87.087" fill="#0181B7" width="1.54" height="26.61"/>
			<circle fill="#B0C3C2" cx="167.8" cy="85.707" r="1.38"/>
		</g>
		<polygon fill="#0181B7" points="841.38,285.637 760.18,285.637 750.04,58.377 841.38,77.317 		"/>
		<polygon fill="#0181B7" points="487.08,155.847 487.08,79.867 474.35,79.867 474.35,59.517 469.8,59.517 469.8,29.667 
			444.73,29.667 444.73,7.727 442.5,7.727 442.5,29.667 437.59,29.667 437.59,2.207 435.36,2.207 435.36,29.667 419.51,29.667 
			419.51,79.867 411.32,79.867 411.32,155.847 404.31,155.847 404.31,294.247 492.02,294.247 492.02,155.847 		"/>
	</g>
	<rect x="49.16" y="282.827" fill="#01719D" width="970.3" height="23.05"/>
	<polygon fill="#01719D" points="620.31,300.227 577.34,300.227 594.08,214.287 620.31,214.287 	"/>
	<rect x="14.35" y="303.577" fill="#01719D" width="1018.76" height="66.63"/>
	<polygon fill="#01719D" points="585.1,141.197 585.1,103.117 571.3,103.117 571.3,88.617 563.92,88.617 563.92,76.437 
		561.33,76.437 561.33,55.557 560.66,55.557 560.66,76.437 558.07,76.437 558.07,88.617 550.69,88.617 550.69,103.117 537,103.117 
		537,141.197 534.15,141.197 534.15,210.337 512.93,210.337 512.93,289.147 534.15,289.147 555.38,289.147 587.84,289.147 
		587.84,141.197 	"/>
	<polygon fill="#01719D" points="664.38,184.937 597.61,184.937 597.61,186.157 600.63,186.157 600.63,298.937 661.36,298.937 
		661.36,186.157 664.38,186.157 	"/>
	<rect x="300.68" y="213.037" fill="#01719D" width="59.2" height="93.95"/>
	<rect x="189.94" y="261.167" fill="#01719D" width="101.82" height="45.82"/>
	<rect x="244.52" y="158.807" fill="#01719D" width="22.35" height="112.51"/>
	<rect x="249.45" y="128.797" fill="#01719D" width="1.16" height="61.18"/>
	<rect x="253.23" y="133.437" fill="#01719D" width="1.16" height="61.18"/>
	<rect x="246.24" y="151.847" fill="#01719D" width="13.66" height="15.08"/>
	<rect x="287.77" y="229.847" fill="#01719D" width="38.9" height="77.14"/>
	<rect x="369.48" y="148.227" fill="#01719D" width="73.02" height="158.76"/>
	<rect x="376.65" y="142.767" fill="#01719D" width="58.68" height="26.45"/>
	<rect x="363.82" y="151.547" fill="#01719D" width="84.34" height="1.86"/>
	<rect x="356.25" y="226.807" fill="#01719D" width="34.41" height="80.18"/>
	<rect x="109.82" y="223.767" fill="#01719D" width="39.48" height="83.22"/>
	<g>
		<rect x="122.59" y="201.147" fill="#01719D" width="78.67" height="105.84"/>
		<rect x="118" y="197.087" fill="#01719D" width="85.29" height="4.06"/>
		<rect x="126.07" y="186.067" fill="#01719D" width="34.58" height="21.46"/>
		<rect x="171.94" y="186.067" fill="#01719D" width="5.81" height="13.05"/>
		<rect x="183.55" y="186.067" fill="#01719D" width="6.39" height="13.05"/>
	</g>
	<rect x="88.34" y="274.797" fill="#01719D" width="41.22" height="32.19"/>
	<rect x="72.76" y="261.167" fill="#01719D" width="19.52" height="45.82"/>
	<rect x="49.16" y="290.887" fill="#01719D" width="33.36" height="16.1"/>
	<rect x="435.33" y="271.317" fill="#01719D" width="411.08" height="35.67"/>
	<rect x="825.51" y="214.077" fill="#01719D" width="63.48" height="92.91"/>
	<rect x="879.7" y="250.197" fill="#01719D" width="63.47" height="56.26"/>
	<rect x="633.52" y="241.937" fill="#8CAAA7" width="35.61" height="47.21"/>
	<rect x="857.25" y="125.727" fill="#01719D" width="44.9" height="181.26"/>
	<polygon fill="#01719D" points="976.08,306.987 916.85,306.987 916.85,201.147 961.75,201.147 	"/>
	<rect x="890.53" y="87.857" fill="#01719D" width="1.55" height="49.26"/>
	<rect x="895.76" y="98.427" fill="#01719D" width="1.55" height="49.26"/>
	<rect x="885.79" y="105.227" fill="#01719D" width="1.55" height="49.26"/>
	<rect x="919.18" y="192.587" fill="#01719D" width="21.19" height="16.68"/>
	<rect x="921.5" y="186.647" fill="#01719D" width="16.55" height="9.37"/>
	<rect x="948.79" y="197.477" fill="#01719D" width="4.06" height="6.73"/>
	<rect x="954.29" y="191.327" fill="#01719D" width="5.81" height="12.88"/>
	<g>
		<ellipse fill="#548280" cx="884.96" cy="151.757" rx="1.16" ry="1.38"/>
		<polygon fill="#015678" points="1012.44,319.367 1005.24,271.317 990.54,271.317 990.54,231.447 992.35,231.447 992.35,227.837 
			985.21,227.837 985.21,212.307 984.34,212.307 984.34,227.837 979.41,227.837 979.41,215.117 978.54,215.117 978.54,227.837 
			948.79,227.837 948.79,231.447 950.82,231.447 950.82,312.347 916.85,312.347 916.85,276.107 897.51,276.107 897.51,187.057 
			899.28,187.057 899.28,182.687 895.42,182.687 895.42,177.097 890.97,177.097 890.97,174.997 890.97,168.597 890.97,163.047 
			885.61,163.047 885.61,153.137 884.96,153.137 884.31,153.137 884.31,163.047 881.42,163.047 879.67,168.597 867.97,168.597 
			867.97,177.097 837.33,177.097 837.33,182.687 833.47,182.687 833.47,187.057 835.24,187.057 835.24,244.997 809.6,244.997 
			809.6,301.927 781.15,289.337 781.15,234.077 785.74,234.077 785.74,230.017 777.67,230.017 777.67,219.007 743.1,219.007 
			743.1,230.017 731.8,230.017 731.8,219.007 726,219.007 726,230.017 720.19,230.017 720.19,219.007 713.81,219.007 
			713.81,230.017 700.45,230.017 700.45,234.077 702.48,234.077 702.48,310.667 689.52,310.667 689.52,309.867 687.17,309.867 
			687.17,288.037 689.52,288.037 689.52,286.287 687.17,286.287 687.17,264.467 689.52,264.467 689.52,262.717 687.17,262.717 
			687.17,240.887 689.52,240.887 689.52,239.137 687.17,239.137 687.17,217.317 689.52,217.317 689.52,215.557 687.17,215.557 
			687.17,193.737 689.52,193.737 689.52,191.987 687.17,191.987 687.17,169.397 691.19,169.397 691.19,167.647 693.24,167.647 
			693.24,162.857 655.05,162.857 655.05,157.527 656.29,157.527 656.29,155.987 635.5,155.987 635.5,157.527 636.74,157.527 
			636.74,162.857 627.27,162.857 627.27,167.647 629.32,167.647 629.32,169.397 633.34,169.397 633.34,191.987 630.99,191.987 
			630.99,193.737 633.34,193.737 633.34,215.557 630.99,215.557 630.99,217.317 633.34,217.317 633.34,239.137 630.99,239.137 
			630.99,240.887 633.34,240.887 633.34,262.717 630.99,262.717 630.99,264.467 633.34,264.467 633.34,286.287 630.99,286.287 
			630.99,288.037 633.34,288.037 633.34,309.867 630.99,309.867 630.99,311.617 633.34,311.617 633.34,329.447 620.31,329.447 
			620.31,260.537 567.86,260.537 567.86,310.667 559.34,310.667 559.34,154.487 553.04,154.487 553.04,158.507 541.42,161.347 
			541.42,158.737 535.12,158.737 535.12,162.887 523.49,165.727 523.49,162.737 517.19,162.737 517.19,167.267 505.56,170.107 
			505.56,167.637 499.26,167.637 499.26,171.647 487.64,174.487 487.64,172.357 481.34,172.357 481.34,325.727 472.48,325.727 
			472.48,243.967 439.65,243.967 439.65,294.247 405.99,294.247 405.99,251.367 401.85,251.367 401.85,237.287 404.31,237.287 
			404.31,235.877 393.42,235.877 393.42,231.447 392.25,231.447 392.25,235.877 388.77,235.877 388.77,213.147 387.9,213.147 
			387.9,235.877 383.36,235.877 383.36,237.287 386.03,237.287 386.03,251.367 363.82,251.367 363.82,284.077 342.2,284.077 
			330.9,325.727 308.24,325.727 308.24,189.727 278.24,189.727 278.24,184.857 279.95,184.857 279.95,183.147 257.22,183.147 
			257.22,184.857 259.01,184.857 259.01,189.727 259.01,197.567 259.01,290.707 244.86,290.707 244.86,255.517 249.89,255.517 
			249.89,252.327 214.3,252.327 214.3,231.067 207.51,231.067 207.51,226.697 192.35,226.697 192.35,231.067 180.02,231.067 
			180.02,306.987 139.56,306.987 139.56,250.677 105.49,250.677 105.49,295.147 75.92,295.147 75.92,323.607 54.61,323.607 
			54.61,287.837 26.57,287.837 26.57,318.337 1.19,318.337 1.19,370.207 26.57,370.207 35.15,370.207 49.16,370.207 54.61,370.207 
			75.92,370.207 105.49,370.207 115.42,370.207 120.74,370.207 139.56,370.207 180.02,370.207 192.35,370.207 207.51,370.207 
			214.3,370.207 240.85,370.207 244.86,370.207 259.01,370.207 282.73,370.207 294.42,370.207 308.24,370.207 363.82,370.207 
			376.65,370.207 398.32,370.207 405.99,370.207 440.22,370.207 449.42,370.207 481.34,370.207 484.49,370.207 487.64,370.207 
			499.26,370.207 505.56,370.207 517.19,370.207 522.46,370.207 523.49,370.207 535.12,370.207 541.42,370.207 551.41,370.207 
			553.04,370.207 556.19,370.207 559.34,370.207 567.86,370.207 611.21,370.207 617.4,370.207 620.31,370.207 633.34,370.207 
			656.29,370.207 677.29,370.207 687.17,370.207 702.48,370.207 740.52,370.207 780.74,370.207 781.15,370.207 809.6,370.207 
			825.51,370.207 835.24,370.207 841.38,370.207 888.99,370.207 897.51,370.207 907.7,370.207 916.85,370.207 950.82,370.207 
			976.08,370.207 981.25,370.207 990.54,370.207 1047.05,370.207 1047.05,319.367 		"/>
	</g>
	<g>
		<rect x="183.55" y="236.577" fill="#FFFFFF" width="2.6" height="2.59"/>
		<rect x="188.77" y="236.577" fill="#FFFFFF" width="2.59" height="2.59"/>
		<rect x="183.55" y="242.667" fill="#FFFFFF" width="2.6" height="2.59"/>
		<rect x="188.77" y="242.667" fill="#FFFFFF" width="2.59" height="2.59"/>
		<rect x="183.55" y="248.557" fill="#FFFFFF" width="2.6" height="2.59"/>
		<rect x="194.56" y="236.577" fill="#FFFFFF" width="2.6" height="2.59"/>
	</g>
	<rect x="373.45" y="158.737" fill="#FFFFFF" width="1.77" height="9.78"/>
	<rect x="379.55" y="158.737" fill="#FFFFFF" width="1.77" height="9.78"/>
	<rect x="385.65" y="158.737" fill="#FFFFFF" width="1.77" height="9.78"/>
	<rect x="391.75" y="158.737" fill="#FFFFFF" width="1.77" height="9.78"/>
	<rect x="397.85" y="158.737" fill="#FFFFFF" width="1.77" height="9.78"/>
	<rect x="403.95" y="158.737" fill="#FFFFFF" width="1.77" height="9.78"/>
	<rect x="410.05" y="158.737" fill="#FFFFFF" width="1.77" height="9.78"/>
	<rect x="416.15" y="158.737" fill="#FFFFFF" width="1.77" height="9.78"/>
	<rect x="422.25" y="158.737" fill="#FFFFFF" width="1.77" height="9.78"/>
	<rect x="428.34" y="158.737" fill="#FFFFFF" width="1.77" height="9.78"/>
	<rect x="434.44" y="158.737" fill="#FFFFFF" width="1.77" height="9.78"/>
	<rect x="373.45" y="172.357" fill="#FFFFFF" width="1.77" height="9.79"/>
	<rect x="379.55" y="172.357" fill="#FFFFFF" width="1.77" height="9.79"/>
	<rect x="385.65" y="172.357" fill="#FFFFFF" width="1.77" height="9.79"/>
	<rect x="391.75" y="172.357" fill="#FFFFFF" width="1.77" height="9.79"/>
	<rect x="397.85" y="172.357" fill="#FFFFFF" width="1.77" height="9.79"/>
	<rect x="403.95" y="172.357" fill="#FFFFFF" width="1.77" height="9.79"/>
	<rect x="410.05" y="172.357" fill="#FFFFFF" width="1.77" height="9.79"/>
	<rect x="416.15" y="172.357" fill="#FFFFFF" width="1.77" height="9.79"/>
	<rect x="422.25" y="172.357" fill="#FFFFFF" width="1.77" height="9.79"/>
	<rect x="428.34" y="172.357" fill="#FFFFFF" width="1.77" height="9.79"/>
	<rect x="434.44" y="172.357" fill="#FFFFFF" width="1.77" height="9.79"/>
	<rect x="373.45" y="185.977" fill="#FFFFFF" width="1.77" height="9.79"/>
	<rect x="379.55" y="185.977" fill="#FFFFFF" width="1.77" height="9.79"/>
	<rect x="385.65" y="185.977" fill="#FFFFFF" width="1.77" height="9.79"/>
	<rect x="391.75" y="185.977" fill="#FFFFFF" width="1.77" height="9.79"/>
	<rect x="397.85" y="185.977" fill="#FFFFFF" width="1.77" height="9.79"/>
	<rect x="403.95" y="185.977" fill="#FFFFFF" width="1.77" height="9.79"/>
	<rect x="410.05" y="185.977" fill="#FFFFFF" width="1.77" height="9.79"/>
	<rect x="416.15" y="185.977" fill="#FFFFFF" width="1.77" height="9.79"/>
	<rect x="422.25" y="185.977" fill="#FFFFFF" width="1.77" height="9.79"/>
	<rect x="428.34" y="185.977" fill="#FFFFFF" width="1.77" height="9.79"/>
	<rect x="434.44" y="185.977" fill="#FFFFFF" width="1.77" height="9.79"/>
	<rect x="391.75" y="199.607" fill="#FFFFFF" width="1.77" height="9.78"/>
	<rect x="397.85" y="199.607" fill="#FFFFFF" width="1.77" height="9.78"/>
	<rect x="403.95" y="199.607" fill="#FFFFFF" width="1.77" height="9.78"/>
	<rect x="410.05" y="199.607" fill="#FFFFFF" width="1.77" height="9.78"/>
	<rect x="416.15" y="199.607" fill="#FFFFFF" width="1.77" height="9.78"/>
	<rect x="422.25" y="199.607" fill="#FFFFFF" width="1.77" height="9.78"/>
	<rect x="428.34" y="199.607" fill="#FFFFFF" width="1.77" height="9.78"/>
	<rect x="434.44" y="199.607" fill="#FFFFFF" width="1.77" height="9.78"/>
	<rect x="397.85" y="213.977" fill="#FFFFFF" width="1.77" height="9.79"/>
	<rect x="403.95" y="213.977" fill="#FFFFFF" width="1.77" height="9.79"/>
	<rect x="410.05" y="213.977" fill="#FFFFFF" width="1.77" height="9.79"/>
	<rect x="416.15" y="213.977" fill="#FFFFFF" width="1.77" height="9.79"/>
	<rect x="422.25" y="213.977" fill="#FFFFFF" width="1.77" height="9.79"/>
	<rect x="428.34" y="213.977" fill="#FFFFFF" width="1.77" height="9.79"/>
	<rect x="434.44" y="213.977" fill="#FFFFFF" width="1.77" height="9.79"/>
	<rect x="491.36" y="183.027" fill="#FFFFFF" width="4.18" height="10.59"/>
	<rect x="491.36" y="203.287" fill="#FFFFFF" width="4.18" height="10.59"/>
	<rect x="491.36" y="223.547" fill="#FFFFFF" width="4.18" height="10.59"/>
	<rect x="491.36" y="243.807" fill="#FFFFFF" width="4.18" height="10.59"/>
	<rect x="491.36" y="262.907" fill="#FFFFFF" width="4.18" height="10.59"/>
	<rect x="491.36" y="283.167" fill="#FFFFFF" width="4.18" height="10.59"/>
	<rect x="509.29" y="183.027" fill="#FFFFFF" width="4.18" height="10.59"/>
	<rect x="509.29" y="203.287" fill="#FFFFFF" width="4.18" height="10.59"/>
	<rect x="509.29" y="223.547" fill="#FFFFFF" width="4.18" height="10.59"/>
	<rect x="509.29" y="243.807" fill="#FFFFFF" width="4.18" height="10.59"/>
	<rect x="509.29" y="262.907" fill="#FFFFFF" width="4.18" height="10.59"/>
	<rect x="509.29" y="283.167" fill="#FFFFFF" width="4.18" height="10.59"/>
	<rect x="527.21" y="183.027" fill="#FFFFFF" width="4.18" height="10.59"/>
	<rect x="527.21" y="203.287" fill="#FFFFFF" width="4.18" height="10.59"/>
	<rect x="527.21" y="223.547" fill="#FFFFFF" width="4.18" height="10.59"/>
	<rect x="527.21" y="243.807" fill="#FFFFFF" width="4.18" height="10.59"/>
	<rect x="527.21" y="262.907" fill="#FFFFFF" width="4.18" height="10.59"/>
	<rect x="527.21" y="283.167" fill="#FFFFFF" width="4.18" height="10.59"/>
	<rect x="545.14" y="183.027" fill="#FFFFFF" width="4.18" height="10.59"/>
	<rect x="545.14" y="203.287" fill="#FFFFFF" width="4.18" height="10.59"/>
	<rect x="545.14" y="223.547" fill="#FFFFFF" width="4.18" height="10.59"/>
	<rect x="545.14" y="243.807" fill="#FFFFFF" width="4.18" height="10.59"/>
	<rect x="545.14" y="262.907" fill="#FFFFFF" width="4.18" height="10.59"/>
	<rect x="545.14" y="283.167" fill="#FFFFFF" width="4.18" height="10.59"/>
	<rect x="424.02" y="35.307" fill="#FFFFFF" width="3.47" height="9.27"/>
	<rect x="432.6" y="35.307" fill="#FFFFFF" width="3.48" height="9.27"/>
	<rect x="441.18" y="35.307" fill="#FFFFFF" width="3.48" height="9.27"/>
	<rect x="449.77" y="35.307" fill="#FFFFFF" width="3.47" height="9.27"/>
	<rect x="424.02" y="50.747" fill="#FFFFFF" width="3.47" height="9.27"/>
	<rect x="432.6" y="50.747" fill="#FFFFFF" width="3.48" height="9.27"/>
	<rect x="441.18" y="50.747" fill="#FFFFFF" width="3.48" height="9.27"/>
	<rect x="449.77" y="50.747" fill="#FFFFFF" width="3.47" height="9.27"/>
	<rect x="424.02" y="66.187" fill="#FFFFFF" width="3.47" height="9.27"/>
	<rect x="432.6" y="66.187" fill="#FFFFFF" width="3.48" height="9.27"/>
	<rect x="459.5" y="35.307" fill="#FFFFFF" width="3.48" height="9.27"/>
	<rect x="192.35" y="129.217" fill="#FFFFFF" width="2.21" height="8.5"/>
	<rect x="200.16" y="129.217" fill="#FFFFFF" width="2.21" height="8.5"/>
	<rect x="209.29" y="129.217" fill="#FFFFFF" width="2.21" height="8.5"/>
	<rect x="217.09" y="129.217" fill="#FFFFFF" width="2.22" height="8.5"/>
	<rect x="175.01" y="129.217" fill="#FFFFFF" width="2.21" height="8.5"/>
	<rect x="182.81" y="129.217" fill="#FFFFFF" width="2.22" height="8.5"/>
	<rect x="192.35" y="143.977" fill="#FFFFFF" width="2.21" height="8.5"/>
	<rect x="200.16" y="143.977" fill="#FFFFFF" width="2.21" height="8.5"/>
	<rect x="209.29" y="143.977" fill="#FFFFFF" width="2.21" height="8.5"/>
	<rect x="217.09" y="143.977" fill="#FFFFFF" width="2.22" height="8.5"/>
	<rect x="175.01" y="143.977" fill="#FFFFFF" width="2.21" height="8.5"/>
	<rect x="182.81" y="143.977" fill="#FFFFFF" width="2.22" height="8.5"/>
	<rect x="192.35" y="158.737" fill="#FFFFFF" width="2.21" height="8.49"/>
	<rect x="200.16" y="158.737" fill="#FFFFFF" width="2.21" height="8.49"/>
	<rect x="209.29" y="158.737" fill="#FFFFFF" width="2.21" height="8.49"/>
	<rect x="217.09" y="158.737" fill="#FFFFFF" width="2.22" height="8.49"/>
	<rect x="175.01" y="158.737" fill="#FFFFFF" width="2.21" height="8.49"/>
	<rect x="182.81" y="158.737" fill="#FFFFFF" width="2.22" height="8.49"/>
	<rect x="605.2" y="194.347" fill="#FFFFFF" width="3.43" height="13.18"/>
	<rect x="615.69" y="194.347" fill="#FFFFFF" width="3.43" height="13.18"/>
	<rect x="625.56" y="194.347" fill="#FFFFFF" width="3.43" height="13.18"/>
	<rect x="841.38" y="197.087" fill="#FFFFFF" width="2.61" height="7.41"/>
	<rect x="849.54" y="197.087" fill="#FFFFFF" width="2.6" height="7.41"/>
	<rect x="841.38" y="197.087" fill="#FFFFFF" width="2.61" height="7.41"/>
	<rect x="849.54" y="197.087" fill="#FFFFFF" width="2.6" height="7.41"/>
	<rect x="857.25" y="197.087" fill="#FFFFFF" width="2.6" height="7.41"/>
	<rect x="865.4" y="197.087" fill="#FFFFFF" width="2.6" height="7.41"/>
	<rect x="841.38" y="210.377" fill="#FFFFFF" width="2.61" height="7.41"/>
	<rect x="849.54" y="210.377" fill="#FFFFFF" width="2.6" height="7.41"/>
	<rect x="841.38" y="210.377" fill="#FFFFFF" width="2.61" height="7.41"/>
	<rect x="849.54" y="210.377" fill="#FFFFFF" width="2.6" height="7.41"/>
	<rect x="857.25" y="210.377" fill="#FFFFFF" width="2.6" height="7.41"/>
	<rect x="865.4" y="210.377" fill="#FFFFFF" width="2.6" height="7.41"/>
	<rect x="841.38" y="224.517" fill="#FFFFFF" width="2.61" height="7.41"/>
	<rect x="849.54" y="224.517" fill="#FFFFFF" width="2.6" height="7.41"/>
	<rect x="841.38" y="224.517" fill="#FFFFFF" width="2.61" height="7.41"/>
	<rect x="849.54" y="224.517" fill="#FFFFFF" width="2.6" height="7.41"/>
	<rect x="857.25" y="224.517" fill="#FFFFFF" width="2.6" height="7.41"/>
	<rect x="865.4" y="224.517" fill="#FFFFFF" width="2.6" height="7.41"/>
	<rect x="874.32" y="197.087" fill="#FFFFFF" width="2.6" height="7.41"/>
	<rect x="874.32" y="210.377" fill="#FFFFFF" width="2.6" height="7.41"/>
	<rect x="882.47" y="197.087" fill="#FFFFFF" width="2.6" height="7.41"/>
	<rect x="638.19" y="175.087" fill="#FFFFFF" width="2.79" height="11.56"/>
	<rect x="652.09" y="175.087" fill="#FFFFFF" width="2.8" height="11.56"/>
	<rect x="666" y="175.087" fill="#FFFFFF" width="2.8" height="11.56"/>
	<rect x="679.91" y="175.087" fill="#FFFFFF" width="2.8" height="11.56"/>
	<rect x="638.19" y="198.877" fill="#FFFFFF" width="2.79" height="11.55"/>
	<rect x="652.09" y="198.877" fill="#FFFFFF" width="2.8" height="11.55"/>
	<rect x="666" y="198.877" fill="#FFFFFF" width="2.8" height="11.55"/>
	<rect x="679.91" y="198.877" fill="#FFFFFF" width="2.8" height="11.55"/>
	<rect x="638.19" y="223.247" fill="#FFFFFF" width="2.79" height="11.55"/>
	<rect x="652.09" y="223.247" fill="#FFFFFF" width="2.8" height="11.55"/>
	<rect x="666" y="223.247" fill="#FFFFFF" width="2.8" height="11.55"/>
	<rect x="679.91" y="223.247" fill="#FFFFFF" width="2.8" height="11.55"/>
	<rect x="638.19" y="247.617" fill="#FFFFFF" width="2.79" height="11.56"/>
	<rect x="652.09" y="247.617" fill="#FFFFFF" width="2.8" height="11.56"/>
	<rect x="666" y="247.617" fill="#FFFFFF" width="2.8" height="11.56"/>
	<rect x="679.91" y="247.617" fill="#FFFFFF" width="2.8" height="11.56"/>
	<rect x="638.19" y="269.757" fill="#FFFFFF" width="2.79" height="11.55"/>
	<rect x="652.09" y="269.757" fill="#FFFFFF" width="2.8" height="11.55"/>
	<rect x="666" y="269.757" fill="#FFFFFF" width="2.8" height="11.55"/>
	<rect x="638.19" y="294.447" fill="#FFFFFF" width="2.79" height="11.56"/>
	<rect x="652.09" y="294.447" fill="#FFFFFF" width="2.8" height="11.56"/>
	<rect x="666" y="294.447" fill="#FFFFFF" width="2.8" height="11.56"/>
	<rect x="679.91" y="269.757" fill="#FFFFFF" width="2.8" height="11.55"/>
	<rect x="954.34" y="236.177" fill="#FFFFFF" width="2.85" height="6.63"/>
	<rect x="954.34" y="246.887" fill="#FFFFFF" width="2.85" height="6.63"/>
	<rect x="961.66" y="236.177" fill="#FFFFFF" width="2.86" height="6.63"/>
</g>
</svg>
