<?xml version="1.0" encoding="utf-8"?>
<!-- Generator: Adobe Illustrator 17.0.0, SVG Export Plug-In . SVG Version: 6.00 Build 0)  -->
<!DOCTYPE svg PUBLIC "-//W3C//DTD SVG 1.1//EN" "http://www.w3.org/Graphics/SVG/1.1/DTD/svg11.dtd">
<svg version="1.1" id="Layer_1" xmlns="http://www.w3.org/2000/svg" xmlns:xlink="http://www.w3.org/1999/xlink" x="0px" y="0px"
	 width="100%" height="100%" viewBox="0 0 78.119 15.51" enable-background="new 0 0 78.119 15.51" xml:space="preserve">
<path fill-rule="evenodd" clip-rule="evenodd" d="M60.869,11.84h1.75V0.36h-1.75V11.84z M76.289,4.5l-1.93,4.95h-0.09l-2.02-4.95
	h-1.83l3.02,6.97l-1.74,3.86h1.74l4.68-10.83H76.289z M66.649,10.55c-0.55,0-1.37-0.27-1.37-1.01c0-0.91,1.01-1.19,1.83-1.19
	c0.74,0,1.1,0.18,1.56,0.37C68.489,9.82,67.569,10.55,66.649,10.55z M66.839,4.22c-1.29,0-2.57,0.55-3.03,1.74l1.56,0.65
	c0.37-0.65,0.92-0.83,1.56-0.83c0.92,0,1.74,0.55,1.83,1.47v0.09c-0.27-0.18-1-0.46-1.74-0.46c-1.65,0-3.3,0.92-3.3,2.57
	c0,1.56,1.37,2.57,2.84,2.57c1.2,0,1.75-0.55,2.2-1.1h0.1v0.92h1.65V7.43C70.319,5.41,68.759,4.22,66.839,4.22L66.839,4.22z
	 M56.289,5.87h-2.48V1.93h2.48c1.28,0,2.01,1.1,2.01,1.92C58.209,4.86,57.479,5.87,56.289,5.87z M56.189,0.36h-4.12v11.48h1.74V7.52
	h2.38c1.93,0,3.77-1.37,3.77-3.58C59.959,1.74,58.119,0.36,56.189,0.36z M33.809,10.55c-1.2,0-2.21-1.01-2.21-2.38
	c0-1.38,1.01-2.39,2.21-2.39c1.19,0,2.11,1.01,2.11,2.39C35.919,9.54,34.999,10.55,33.809,10.55z M35.829,5.14
	c-0.46-0.46-1.2-0.92-2.12-0.92c-1.92,0-3.76,1.74-3.76,3.95c0,2.2,1.75,3.85,3.76,3.85c0.92,0,1.66-0.46,2.02-0.92h0.1v0.55
	c0,1.47-0.83,2.3-2.12,2.3c-1,0-1.74-0.73-1.92-1.38l-1.47,0.65c0.46,1.01,1.56,2.29,3.49,2.29c2.02,0,3.67-1.19,3.67-4.04V4.5
	h-1.65V5.14z M38.579,11.84h1.74V0.36h-1.74V11.84z M42.889,8.08c0-1.47,1.19-2.3,2.02-2.3c0.64,0,1.28,0.37,1.47,0.83L42.889,8.08z
	 M48.209,6.79c-0.37-0.92-1.28-2.48-3.3-2.48c-2.02,0-3.67,1.56-3.67,3.95c0,2.2,1.65,3.95,3.85,3.95c1.75,0,2.85-1.11,3.21-1.75
	l-1.28-0.92c-0.46,0.65-1.01,1.11-1.93,1.11c-0.92,0-1.47-0.37-1.92-1.2l5.23-2.2L48.209,6.79z M6.559,5.51v1.65h3.94
	c-0.09,0.92-0.46,1.65-0.92,2.11c-0.55,0.55-1.46,1.19-3.02,1.19c-2.48,0-4.32-1.93-4.32-4.4c0-2.48,1.93-4.41,4.32-4.41
	c1.28,0,2.29,0.55,3.02,1.19l1.2-1.19C9.769,0.73,8.479,0,6.649,0c-3.31,0-6.15,2.75-6.15,6.06c0,3.3,2.84,6.05,6.15,6.05
	c1.83,0,3.12-0.55,4.22-1.74c1.1-1.1,1.47-2.66,1.47-3.86c0-0.36,0-0.73-0.1-1H6.559z M16.739,10.55c-1.19,0-2.2-1.01-2.2-2.38
	c0-1.38,1.01-2.39,2.2-2.39s2.2,0.92,2.2,2.39C18.939,9.54,17.929,10.55,16.739,10.55z M16.739,4.31c-2.2,0-3.94,1.65-3.94,3.95
	c0,2.2,1.74,3.95,3.94,3.95s3.95-1.66,3.95-3.95C20.689,5.87,18.939,4.31,16.739,4.31z M25.269,10.55c-1.19,0-2.2-1.01-2.2-2.38
	c0-1.38,1.01-2.39,2.2-2.39c1.2,0,2.21,0.92,2.21,2.39C27.479,9.54,26.469,10.55,25.269,10.55z M25.269,4.31
	c-2.2,0-3.94,1.65-3.94,3.95c0,2.2,1.74,3.95,3.94,3.95c2.21,0,3.95-1.66,3.95-3.95C29.219,5.87,27.479,4.31,25.269,4.31z"/>
</svg>
