<?xml version="1.0" encoding="utf-8"?>
<!-- Generator: Adobe Illustrator 17.0.0, SVG Export Plug-In . SVG Version: 6.00 Build 0)  -->
<!DOCTYPE svg PUBLIC "-//W3C//DTD SVG 1.1//EN" "http://www.w3.org/Graphics/SVG/1.1/DTD/svg11.dtd">
<svg version="1.1" id="Layer_1" xmlns="http://www.w3.org/2000/svg" xmlns:xlink="http://www.w3.org/1999/xlink" x="0px" y="0px"
	 width="100%" viewBox="0 0 1045.86 368" enable-background="new 0 0 1045.86 368" xml:space="preserve">
<g>
	<g>
		<rect x="285.69" y="110.11" fill="#F1F1F1" width="46.15" height="183.49"/>
		<rect x="293.23" y="96.96" fill="#F1F1F1" width="31.07" height="77.11"/>
		<rect x="300.15" y="88.61" fill="#F1F1F1" width="17.23" height="42.77"/>
		<polygon fill="#F1F1F1" points="314.64,110.59 302.9,110.59 302.9,81.44 307.13,81.44 311.33,81.44 314.64,81.44 		"/>
		<g>
			<polygon fill="#F1F1F1" points="307.99,97.9 306.72,97.9 306.72,68.75 307.18,68.75 307.63,68.75 307.99,68.75 			"/>
			<polygon fill="#F1F1F1" points="310.81,87.82 309.54,87.82 309.54,58.68 310,58.68 310.46,58.68 310.81,58.68 			"/>
		</g>
		<rect x="284.46" y="109.64" fill="#F1F1F1" width="48.61" height="1.96"/>
		<rect x="292.1" y="96.02" fill="#F1F1F1" width="33.34" height="1.88"/>
		<rect x="298.89" y="87.82" fill="#F1F1F1" width="19.22" height="1.45"/>
		<rect x="296.09" y="100.09" fill="#F1F1F1" width="1.44" height="8.08"/>
		<rect x="300.09" y="100.09" fill="#F1F1F1" width="1.44" height="8.08"/>
		<rect x="304.08" y="100.09" fill="#F1F1F1" width="1.45" height="8.08"/>
		<rect x="308.08" y="100.09" fill="#F1F1F1" width="1.44" height="8.08"/>
		<rect x="312.08" y="100.09" fill="#F1F1F1" width="1.44" height="8.08"/>
		<rect x="316.07" y="100.09" fill="#F1F1F1" width="1.45" height="8.08"/>
		<rect x="320.07" y="100.09" fill="#F1F1F1" width="1.44" height="8.08"/>
		<rect x="289.74" y="117.43" fill="#F1F1F1" width="3.49" height="9.58"/>
		<rect x="296.65" y="117.43" fill="#F1F1F1" width="3.49" height="9.58"/>
		<rect x="303.57" y="117.43" fill="#F1F1F1" width="3.49" height="9.58"/>
		<rect x="310.48" y="117.43" fill="#F1F1F1" width="3.49" height="9.58"/>
		<rect x="317.39" y="117.43" fill="#F1F1F1" width="3.49" height="9.58"/>
		<rect x="324.3" y="117.43" fill="#F1F1F1" width="3.49" height="9.58"/>
		<rect x="289.74" y="132.37" fill="#F1F1F1" width="3.49" height="9.59"/>
		<rect x="296.65" y="132.37" fill="#F1F1F1" width="3.49" height="9.59"/>
		<rect x="303.57" y="132.37" fill="#F1F1F1" width="3.49" height="9.59"/>
		<rect x="310.48" y="132.37" fill="#F1F1F1" width="3.49" height="9.59"/>
		<rect x="317.39" y="132.37" fill="#F1F1F1" width="3.49" height="9.59"/>
		<rect x="324.3" y="132.37" fill="#F1F1F1" width="3.49" height="9.59"/>
		<rect x="289.74" y="147.31" fill="#F1F1F1" width="3.49" height="9.59"/>
		<rect x="296.65" y="147.31" fill="#F1F1F1" width="3.49" height="9.59"/>
		<rect x="303.57" y="147.31" fill="#F1F1F1" width="3.49" height="9.59"/>
		<rect x="310.48" y="147.31" fill="#F1F1F1" width="3.49" height="9.59"/>
		<rect x="317.39" y="147.31" fill="#F1F1F1" width="3.49" height="9.59"/>
		<rect x="324.3" y="147.31" fill="#F1F1F1" width="3.49" height="9.59"/>
		<rect x="289.74" y="162.25" fill="#F1F1F1" width="3.49" height="9.59"/>
		<rect x="296.65" y="162.25" fill="#F1F1F1" width="3.49" height="9.59"/>
		<rect x="303.57" y="162.25" fill="#F1F1F1" width="3.49" height="9.59"/>
		<rect x="310.48" y="162.25" fill="#F1F1F1" width="3.49" height="9.59"/>
		<rect x="317.39" y="162.25" fill="#F1F1F1" width="3.49" height="9.59"/>
		<rect x="324.3" y="162.25" fill="#F1F1F1" width="3.49" height="9.59"/>
		<rect x="289.74" y="177.2" fill="#F1F1F1" width="3.49" height="9.58"/>
		<rect x="296.65" y="177.2" fill="#F1F1F1" width="3.49" height="9.58"/>
		<rect x="303.57" y="177.2" fill="#F1F1F1" width="3.49" height="9.58"/>
		<rect x="310.48" y="177.2" fill="#F1F1F1" width="3.49" height="9.58"/>
		<rect x="317.39" y="177.2" fill="#F1F1F1" width="3.49" height="9.58"/>
		<rect x="324.3" y="177.2" fill="#F1F1F1" width="3.49" height="9.58"/>
		<rect x="289.74" y="192.14" fill="#F1F1F1" width="3.49" height="9.58"/>
		<rect x="296.65" y="192.14" fill="#F1F1F1" width="3.49" height="9.58"/>
		<rect x="303.57" y="192.14" fill="#F1F1F1" width="3.49" height="9.58"/>
		<rect x="310.48" y="192.14" fill="#F1F1F1" width="3.49" height="9.58"/>
		<rect x="317.39" y="192.14" fill="#F1F1F1" width="3.49" height="9.58"/>
		<rect x="324.3" y="192.14" fill="#F1F1F1" width="3.49" height="9.58"/>
		<rect x="289.74" y="207.08" fill="#F1F1F1" width="3.49" height="9.59"/>
		<rect x="296.65" y="207.08" fill="#F1F1F1" width="3.49" height="9.59"/>
		<rect x="303.57" y="207.08" fill="#F1F1F1" width="3.49" height="9.59"/>
		<rect x="310.48" y="207.08" fill="#F1F1F1" width="3.49" height="9.59"/>
		<rect x="317.39" y="207.08" fill="#F1F1F1" width="3.49" height="9.59"/>
		<rect x="324.3" y="207.08" fill="#F1F1F1" width="3.49" height="9.59"/>
		<rect x="289.74" y="222.02" fill="#F1F1F1" width="3.49" height="9.59"/>
		<rect x="296.65" y="222.02" fill="#F1F1F1" width="3.49" height="9.59"/>
		<rect x="303.57" y="222.02" fill="#F1F1F1" width="3.49" height="9.59"/>
		<rect x="310.48" y="222.02" fill="#F1F1F1" width="3.49" height="9.59"/>
		<rect x="317.39" y="222.02" fill="#F1F1F1" width="3.49" height="9.59"/>
		<rect x="324.3" y="222.02" fill="#F1F1F1" width="3.49" height="9.59"/>
		<rect x="289.74" y="236.96" fill="#F1F1F1" width="3.49" height="9.59"/>
		<rect x="296.65" y="236.96" fill="#F1F1F1" width="3.49" height="9.59"/>
		<rect x="303.57" y="236.96" fill="#F1F1F1" width="3.49" height="9.59"/>
		<rect x="310.48" y="236.96" fill="#F1F1F1" width="3.49" height="9.59"/>
		<rect x="317.39" y="236.96" fill="#F1F1F1" width="3.49" height="9.59"/>
		<rect x="324.3" y="236.96" fill="#F1F1F1" width="3.49" height="9.59"/>
		<rect x="289.74" y="251.91" fill="#F1F1F1" width="3.49" height="9.58"/>
		<rect x="296.65" y="251.91" fill="#F1F1F1" width="3.49" height="9.58"/>
		<rect x="303.57" y="251.91" fill="#F1F1F1" width="3.49" height="9.58"/>
		<rect x="310.48" y="251.91" fill="#F1F1F1" width="3.49" height="9.58"/>
		<rect x="317.39" y="251.91" fill="#F1F1F1" width="3.49" height="9.58"/>
		<rect x="324.3" y="251.91" fill="#F1F1F1" width="3.49" height="9.58"/>
		<rect x="289.74" y="266.85" fill="#F1F1F1" width="3.49" height="9.58"/>
		<rect x="296.65" y="266.85" fill="#F1F1F1" width="3.49" height="9.58"/>
		<rect x="303.57" y="266.85" fill="#F1F1F1" width="3.49" height="9.58"/>
		<rect x="310.48" y="266.85" fill="#F1F1F1" width="3.49" height="9.58"/>
		<rect x="317.39" y="266.85" fill="#F1F1F1" width="3.49" height="9.58"/>
		<rect x="324.3" y="266.85" fill="#F1F1F1" width="3.49" height="9.58"/>
	</g>
	<g>
		<rect x="151.66" y="117.09" fill="#F1F1F1" width="74.19" height="154.58"/>
		<rect x="149.55" y="114.43" fill="#F1F1F1" width="78.4" height="4.37"/>
		<rect x="154.15" y="108.84" fill="#F1F1F1" width="69.2" height="20.77"/>
		<rect x="159.45" y="100.35" fill="#F1F1F1" width="27.4" height="22.68"/>
		<polygon fill="#F1F1F1" points="175.31,106.74 159.45,106.74 159.45,94.8 170.82,94.8 		"/>
		<rect x="165.84" y="84.88" fill="#F1F1F1" width="1.54" height="26.61"/>
		<circle fill="#F1F1F1" cx="166.61" cy="83.5" r="1.38"/>
	</g>
	<polygon fill="#F1F1F1" points="840.2,283.43 758.99,283.43 748.85,56.17 840.2,75.11 	"/>
	<polygon fill="#F1F1F1" points="485.9,153.64 485.9,77.66 473.16,77.66 473.16,57.31 468.61,57.31 468.61,27.46 443.54,27.46 
		443.54,5.52 441.31,5.52 441.31,27.46 436.4,27.46 436.4,0 434.17,0 434.17,27.46 418.32,27.46 418.32,77.66 410.14,77.66 
		410.14,153.64 403.12,153.64 403.12,292.04 490.83,292.04 490.83,153.64 	"/>
</g>
<rect x="47.98" y="280.62" fill="#EBEBEB" width="970.29" height="23.05"/>
<rect x="632.33" y="239.73" fill="#F1F1F1" width="35.61" height="47.21"/>
<polygon fill-rule="evenodd" clip-rule="evenodd" fill="#EBEBEB" points="299.49,227.64 286.58,227.64 286.59,258.96 265.68,258.96 
	265.68,156.6 258.71,156.6 258.72,149.64 253.2,149.64 253.2,131.23 252.04,131.23 252.04,149.64 249.42,149.64 249.43,126.59 
	248.27,126.59 248.26,149.64 245.05,149.64 245.05,156.6 243.33,156.6 243.33,258.96 200.07,258.96 200.07,198.94 202.11,198.94 
	202.11,194.88 188.75,194.87 188.75,183.86 182.37,183.86 182.36,194.87 176.56,194.87 176.56,183.86 170.75,183.86 170.75,194.87 
	159.46,194.87 159.46,183.86 124.89,183.86 124.88,194.87 116.81,194.88 116.81,198.94 121.4,198.94 121.4,221.55 108.63,221.56 
	108.63,272.59 91.1,272.59 91.1,258.96 71.58,258.96 71.58,288.68 47.98,288.68 47.97,301.36 13.16,301.37 13.16,368 1031.93,368 
	1031.93,301.37 1000.82,301.36 1000.82,280.62 971.62,280.61 960.57,198.94 958.91,198.93 958.91,189.12 953.1,189.12 953.1,198.93 
	951.66,198.93 951.66,195.27 947.6,195.27 947.6,198.93 939.18,198.93 939.18,190.38 936.86,190.38 936.86,184.44 920.31,184.44 
	920.31,190.38 917.99,190.38 917.99,198.93 915.67,198.94 915.66,247.99 900.96,247.99 900.96,123.52 896.12,123.52 896.12,96.22 
	894.57,96.22 894.57,123.52 890.89,123.52 890.89,85.65 889.35,85.65 889.34,123.52 886.15,123.52 886.15,103.02 884.6,103.02 
	884.6,123.52 856.06,123.52 856.06,211.87 824.32,211.87 824.32,269.11 660.18,269.11 660.17,183.95 663.19,183.95 663.19,182.73 
	596.42,182.73 596.42,183.95 599.44,183.95 599.44,212.08 592.89,212.08 586.65,244.14 586.65,138.99 583.91,138.99 583.91,100.91 
	570.11,100.91 570.11,86.41 562.73,86.41 562.73,74.23 560.14,74.23 560.14,53.35 559.47,53.35 559.47,74.23 556.88,74.23 
	556.88,86.41 549.5,86.41 549.5,100.91 535.81,100.91 535.81,138.99 532.97,138.99 532.97,208.13 511.74,208.13 511.74,269.11 
	441.31,269.11 441.31,151.19 446.98,151.2 446.98,149.34 441.31,149.34 441.31,146.02 434.14,146.02 434.14,140.56 375.47,140.56 
	375.47,146.02 368.29,146.02 368.29,149.34 362.63,149.34 362.63,151.2 368.29,151.19 368.29,224.6 358.69,224.6 358.7,210.83 
	299.49,210.83 "/>
<g>
	<ellipse fill="#548280" cx="883.77" cy="149.55" rx="1.16" ry="1.38"/>
	<polygon fill="#E1E1E1" points="1011.25,317.16 1004.06,269.11 989.35,269.11 989.35,229.24 991.17,229.24 991.17,225.63 
		984.03,225.63 984.03,210.1 983.16,210.1 983.16,225.63 978.22,225.63 978.22,212.91 977.35,212.91 977.35,225.63 947.6,225.63 
		947.6,229.24 949.63,229.24 949.63,310.14 915.67,310.14 915.67,273.9 896.32,273.9 896.32,184.85 898.09,184.85 898.09,180.48 
		894.23,180.48 894.23,174.89 889.78,174.89 889.78,172.79 889.78,166.39 889.78,160.84 884.42,160.84 884.42,150.93 883.77,150.93 
		883.13,150.93 883.13,160.84 880.24,160.84 878.49,166.39 866.78,166.39 866.78,174.89 836.14,174.89 836.14,180.48 832.28,180.48 
		832.28,184.85 834.05,184.85 834.05,242.79 808.41,242.79 808.41,299.72 779.97,287.13 779.97,231.87 784.56,231.87 784.56,227.81 
		776.48,227.81 776.48,216.8 741.91,216.8 741.91,227.81 730.62,227.81 730.62,216.8 724.81,216.8 724.81,227.81 719,227.81 
		719,216.8 712.62,216.8 712.62,227.81 699.26,227.81 699.26,231.87 701.3,231.87 701.3,308.46 688.33,308.46 688.33,307.66 
		685.98,307.66 685.98,285.83 688.33,285.83 688.33,284.08 685.98,284.08 685.98,262.26 688.33,262.26 688.33,260.51 685.98,260.51 
		685.98,238.68 688.33,238.68 688.33,236.93 685.98,236.93 685.98,215.11 688.33,215.11 688.33,213.35 685.98,213.35 685.98,191.53 
		688.33,191.53 688.33,189.78 685.98,189.78 685.98,167.19 690,167.19 690,165.44 692.05,165.44 692.05,160.65 653.86,160.65 
		653.86,155.32 655.1,155.32 655.1,153.78 634.31,153.78 634.31,155.32 635.55,155.32 635.55,160.65 626.09,160.65 626.09,165.44 
		628.13,165.44 628.13,167.19 632.15,167.19 632.15,189.78 629.81,189.78 629.81,191.53 632.15,191.53 632.15,213.35 629.81,213.35 
		629.81,215.11 632.15,215.11 632.15,236.93 629.81,236.93 629.81,238.68 632.15,238.68 632.15,260.51 629.81,260.51 629.81,262.26 
		632.15,262.26 632.15,284.08 629.81,284.08 629.81,285.83 632.15,285.83 632.15,307.66 629.81,307.66 629.81,309.41 632.15,309.41 
		632.15,327.24 619.12,327.24 619.12,258.33 566.67,258.33 566.67,308.46 558.15,308.46 558.15,152.28 551.85,152.28 551.85,156.3 
		540.23,159.14 540.23,156.53 533.93,156.53 533.93,160.68 522.3,163.52 522.3,160.53 516,160.53 516,165.06 504.38,167.9 
		504.38,165.43 498.08,165.43 498.08,169.44 486.45,172.28 486.45,170.15 480.15,170.15 480.15,323.52 471.29,323.52 471.29,241.76 
		438.46,241.76 438.46,292.04 404.8,292.04 404.8,249.16 400.66,249.16 400.66,235.08 403.12,235.08 403.12,233.67 392.23,233.67 
		392.23,229.24 391.07,229.24 391.07,233.67 387.58,233.67 387.58,210.94 386.71,210.94 386.71,233.67 382.18,233.67 382.18,235.08 
		384.85,235.08 384.85,249.16 362.63,249.16 362.63,281.87 341.01,281.87 329.72,323.52 307.06,323.52 307.06,187.52 277.05,187.52 
		277.05,182.65 278.76,182.65 278.76,180.94 256.04,180.94 256.04,182.65 257.82,182.65 257.82,187.52 257.82,195.36 257.82,288.5 
		243.68,288.5 243.68,253.31 248.7,253.31 248.7,250.12 213.11,250.12 213.11,228.86 206.32,228.86 206.32,224.49 191.16,224.49 
		191.16,228.86 178.83,228.86 178.83,304.78 138.37,304.78 138.37,248.47 104.3,248.47 104.3,292.94 74.74,292.94 74.74,321.4 
		53.42,321.4 53.42,285.63 25.38,285.63 25.38,316.13 0,316.13 0,368 25.38,368 33.96,368 47.98,368 53.42,368 74.74,368 104.3,368 
		114.24,368 119.56,368 138.37,368 178.83,368 191.16,368 206.32,368 213.11,368 239.66,368 243.68,368 257.82,368 281.55,368 
		293.23,368 307.06,368 362.63,368 375.47,368 397.13,368 404.8,368 439.03,368 448.23,368 480.15,368 483.3,368 486.45,368 
		498.08,368 504.38,368 516,368 521.27,368 522.3,368 533.93,368 540.23,368 550.22,368 551.85,368 555,368 558.15,368 566.67,368 
		610.02,368 616.21,368 619.12,368 632.15,368 655.1,368 676.11,368 685.98,368 701.3,368 739.33,368 779.55,368 779.97,368 
		808.41,368 824.32,368 834.05,368 840.2,368 887.8,368 896.32,368 906.52,368 915.67,368 949.63,368 974.89,368 980.06,368 
		989.35,368 1045.86,368 1045.86,317.16 	"/>
</g>
<g>
	<rect x="182.37" y="234.37" fill="#FFFFFF" width="2.59" height="2.59"/>
	<rect x="187.58" y="234.37" fill="#FFFFFF" width="2.59" height="2.59"/>
	<rect x="182.37" y="240.46" fill="#FFFFFF" width="2.59" height="2.59"/>
	<rect x="187.58" y="240.46" fill="#FFFFFF" width="2.59" height="2.59"/>
	<rect x="182.37" y="246.35" fill="#FFFFFF" width="2.59" height="2.59"/>
	<rect x="193.37" y="234.37" fill="#FFFFFF" width="2.6" height="2.59"/>
</g>
<rect x="372.27" y="156.53" fill="#FFFFFF" width="1.77" height="9.78"/>
<rect x="378.37" y="156.53" fill="#FFFFFF" width="1.77" height="9.78"/>
<rect x="384.46" y="156.53" fill="#FFFFFF" width="1.77" height="9.78"/>
<rect x="390.56" y="156.53" fill="#FFFFFF" width="1.77" height="9.78"/>
<rect x="396.66" y="156.53" fill="#FFFFFF" width="1.77" height="9.78"/>
<rect x="402.76" y="156.53" fill="#FFFFFF" width="1.77" height="9.78"/>
<rect x="408.86" y="156.53" fill="#FFFFFF" width="1.77" height="9.78"/>
<rect x="414.96" y="156.53" fill="#FFFFFF" width="1.77" height="9.78"/>
<rect x="421.06" y="156.53" fill="#FFFFFF" width="1.77" height="9.78"/>
<rect x="427.16" y="156.53" fill="#FFFFFF" width="1.77" height="9.78"/>
<rect x="433.26" y="156.53" fill="#FFFFFF" width="1.77" height="9.78"/>
<rect x="372.27" y="170.15" fill="#FFFFFF" width="1.77" height="9.79"/>
<rect x="378.37" y="170.15" fill="#FFFFFF" width="1.77" height="9.79"/>
<rect x="384.46" y="170.15" fill="#FFFFFF" width="1.77" height="9.79"/>
<rect x="390.56" y="170.15" fill="#FFFFFF" width="1.77" height="9.79"/>
<rect x="396.66" y="170.15" fill="#FFFFFF" width="1.77" height="9.79"/>
<rect x="402.76" y="170.15" fill="#FFFFFF" width="1.77" height="9.79"/>
<rect x="408.86" y="170.15" fill="#FFFFFF" width="1.77" height="9.79"/>
<rect x="414.96" y="170.15" fill="#FFFFFF" width="1.77" height="9.79"/>
<rect x="421.06" y="170.15" fill="#FFFFFF" width="1.77" height="9.79"/>
<rect x="427.16" y="170.15" fill="#FFFFFF" width="1.77" height="9.79"/>
<rect x="433.26" y="170.15" fill="#FFFFFF" width="1.77" height="9.79"/>
<rect x="372.27" y="183.77" fill="#FFFFFF" width="1.77" height="9.79"/>
<rect x="378.37" y="183.77" fill="#FFFFFF" width="1.77" height="9.79"/>
<rect x="384.46" y="183.77" fill="#FFFFFF" width="1.77" height="9.79"/>
<rect x="390.56" y="183.77" fill="#FFFFFF" width="1.77" height="9.79"/>
<rect x="396.66" y="183.77" fill="#FFFFFF" width="1.77" height="9.79"/>
<rect x="402.76" y="183.77" fill="#FFFFFF" width="1.77" height="9.79"/>
<rect x="408.86" y="183.77" fill="#FFFFFF" width="1.77" height="9.79"/>
<rect x="414.96" y="183.77" fill="#FFFFFF" width="1.77" height="9.79"/>
<rect x="421.06" y="183.77" fill="#FFFFFF" width="1.77" height="9.79"/>
<rect x="427.16" y="183.77" fill="#FFFFFF" width="1.77" height="9.79"/>
<rect x="433.26" y="183.77" fill="#FFFFFF" width="1.77" height="9.79"/>
<rect x="390.56" y="197.4" fill="#FFFFFF" width="1.77" height="9.78"/>
<rect x="396.66" y="197.4" fill="#FFFFFF" width="1.77" height="9.78"/>
<rect x="402.76" y="197.4" fill="#FFFFFF" width="1.77" height="9.78"/>
<rect x="408.86" y="197.4" fill="#FFFFFF" width="1.77" height="9.78"/>
<rect x="414.96" y="197.4" fill="#FFFFFF" width="1.77" height="9.78"/>
<rect x="421.06" y="197.4" fill="#FFFFFF" width="1.77" height="9.78"/>
<rect x="427.16" y="197.4" fill="#FFFFFF" width="1.77" height="9.78"/>
<rect x="433.26" y="197.4" fill="#FFFFFF" width="1.77" height="9.78"/>
<rect x="396.66" y="211.77" fill="#FFFFFF" width="1.77" height="9.79"/>
<rect x="402.76" y="211.77" fill="#FFFFFF" width="1.77" height="9.79"/>
<rect x="408.86" y="211.77" fill="#FFFFFF" width="1.77" height="9.79"/>
<rect x="414.96" y="211.77" fill="#FFFFFF" width="1.77" height="9.79"/>
<rect x="421.06" y="211.77" fill="#FFFFFF" width="1.77" height="9.79"/>
<rect x="427.16" y="211.77" fill="#FFFFFF" width="1.77" height="9.79"/>
<rect x="433.26" y="211.77" fill="#FFFFFF" width="1.77" height="9.79"/>
<rect x="490.17" y="180.82" fill="#FFFFFF" width="4.19" height="10.59"/>
<rect x="490.17" y="201.08" fill="#FFFFFF" width="4.19" height="10.59"/>
<rect x="490.17" y="221.34" fill="#FFFFFF" width="4.19" height="10.59"/>
<rect x="490.17" y="241.6" fill="#FFFFFF" width="4.19" height="10.59"/>
<rect x="490.17" y="260.7" fill="#FFFFFF" width="4.19" height="10.59"/>
<rect x="490.17" y="280.96" fill="#FFFFFF" width="4.19" height="10.59"/>
<rect x="508.1" y="180.82" fill="#FFFFFF" width="4.18" height="10.59"/>
<rect x="508.1" y="201.08" fill="#FFFFFF" width="4.18" height="10.59"/>
<rect x="508.1" y="221.34" fill="#FFFFFF" width="4.18" height="10.59"/>
<rect x="508.1" y="241.6" fill="#FFFFFF" width="4.18" height="10.59"/>
<rect x="508.1" y="260.7" fill="#FFFFFF" width="4.18" height="10.59"/>
<rect x="508.1" y="280.96" fill="#FFFFFF" width="4.18" height="10.59"/>
<rect x="526.03" y="180.82" fill="#FFFFFF" width="4.18" height="10.59"/>
<rect x="526.03" y="201.08" fill="#FFFFFF" width="4.18" height="10.59"/>
<rect x="526.03" y="221.34" fill="#FFFFFF" width="4.18" height="10.59"/>
<rect x="526.03" y="241.6" fill="#FFFFFF" width="4.18" height="10.59"/>
<rect x="526.03" y="260.7" fill="#FFFFFF" width="4.18" height="10.59"/>
<rect x="526.03" y="280.96" fill="#FFFFFF" width="4.18" height="10.59"/>
<rect x="543.95" y="180.82" fill="#FFFFFF" width="4.18" height="10.59"/>
<rect x="543.95" y="201.08" fill="#FFFFFF" width="4.18" height="10.59"/>
<rect x="543.95" y="221.34" fill="#FFFFFF" width="4.18" height="10.59"/>
<rect x="543.95" y="241.6" fill="#FFFFFF" width="4.18" height="10.59"/>
<rect x="543.95" y="260.7" fill="#FFFFFF" width="4.18" height="10.59"/>
<rect x="543.95" y="280.96" fill="#FFFFFF" width="4.18" height="10.59"/>
<rect x="422.83" y="33.1" fill="#FFFFFF" width="3.48" height="9.27"/>
<rect x="431.41" y="33.1" fill="#FFFFFF" width="3.48" height="9.27"/>
<rect x="440" y="33.1" fill="#FFFFFF" width="3.47" height="9.27"/>
<rect x="448.58" y="33.1" fill="#FFFFFF" width="3.48" height="9.27"/>
<rect x="422.83" y="48.54" fill="#FFFFFF" width="3.48" height="9.27"/>
<rect x="431.41" y="48.54" fill="#FFFFFF" width="3.48" height="9.27"/>
<rect x="440" y="48.54" fill="#FFFFFF" width="3.47" height="9.27"/>
<rect x="448.58" y="48.54" fill="#FFFFFF" width="3.48" height="9.27"/>
<rect x="422.83" y="63.98" fill="#FFFFFF" width="3.48" height="9.27"/>
<rect x="431.41" y="63.98" fill="#FFFFFF" width="3.48" height="9.27"/>
<rect x="458.32" y="33.1" fill="#FFFFFF" width="3.47" height="9.27"/>
<rect x="191.16" y="127.01" fill="#FFFFFF" width="2.21" height="8.5"/>
<rect x="198.97" y="127.01" fill="#FFFFFF" width="2.21" height="8.5"/>
<rect x="208.1" y="127.01" fill="#FFFFFF" width="2.21" height="8.5"/>
<rect x="215.91" y="127.01" fill="#FFFFFF" width="2.21" height="8.5"/>
<rect x="173.82" y="127.01" fill="#FFFFFF" width="2.21" height="8.5"/>
<rect x="181.63" y="127.01" fill="#FFFFFF" width="2.21" height="8.5"/>
<rect x="191.16" y="141.77" fill="#FFFFFF" width="2.21" height="8.5"/>
<rect x="198.97" y="141.77" fill="#FFFFFF" width="2.21" height="8.5"/>
<rect x="208.1" y="141.77" fill="#FFFFFF" width="2.21" height="8.5"/>
<rect x="215.91" y="141.77" fill="#FFFFFF" width="2.21" height="8.5"/>
<rect x="173.82" y="141.77" fill="#FFFFFF" width="2.21" height="8.5"/>
<rect x="181.63" y="141.77" fill="#FFFFFF" width="2.21" height="8.5"/>
<rect x="191.16" y="156.53" fill="#FFFFFF" width="2.21" height="8.49"/>
<rect x="198.97" y="156.53" fill="#FFFFFF" width="2.21" height="8.49"/>
<rect x="208.1" y="156.53" fill="#FFFFFF" width="2.21" height="8.49"/>
<rect x="215.91" y="156.53" fill="#FFFFFF" width="2.21" height="8.49"/>
<rect x="173.82" y="156.53" fill="#FFFFFF" width="2.21" height="8.49"/>
<rect x="181.63" y="156.53" fill="#FFFFFF" width="2.21" height="8.49"/>
<rect x="604.01" y="192.14" fill="#FFFFFF" width="3.43" height="13.18"/>
<rect x="614.5" y="192.14" fill="#FFFFFF" width="3.43" height="13.18"/>
<rect x="624.37" y="192.14" fill="#FFFFFF" width="3.43" height="13.18"/>
<rect x="840.2" y="194.88" fill="#FFFFFF" width="2.6" height="7.41"/>
<rect x="848.35" y="194.88" fill="#FFFFFF" width="2.6" height="7.41"/>
<rect x="840.2" y="194.88" fill="#FFFFFF" width="2.6" height="7.41"/>
<rect x="848.35" y="194.88" fill="#FFFFFF" width="2.6" height="7.41"/>
<rect x="856.06" y="194.88" fill="#FFFFFF" width="2.6" height="7.41"/>
<rect x="864.21" y="194.88" fill="#FFFFFF" width="2.61" height="7.41"/>
<rect x="840.2" y="208.17" fill="#FFFFFF" width="2.6" height="7.41"/>
<rect x="848.35" y="208.17" fill="#FFFFFF" width="2.6" height="7.41"/>
<rect x="840.2" y="208.17" fill="#FFFFFF" width="2.6" height="7.41"/>
<rect x="848.35" y="208.17" fill="#FFFFFF" width="2.6" height="7.41"/>
<rect x="856.06" y="208.17" fill="#FFFFFF" width="2.6" height="7.41"/>
<rect x="864.21" y="208.17" fill="#FFFFFF" width="2.61" height="7.41"/>
<rect x="840.2" y="222.31" fill="#FFFFFF" width="2.6" height="7.41"/>
<rect x="848.35" y="222.31" fill="#FFFFFF" width="2.6" height="7.41"/>
<rect x="840.2" y="222.31" fill="#FFFFFF" width="2.6" height="7.41"/>
<rect x="848.35" y="222.31" fill="#FFFFFF" width="2.6" height="7.41"/>
<rect x="856.06" y="222.31" fill="#FFFFFF" width="2.6" height="7.41"/>
<rect x="864.21" y="222.31" fill="#FFFFFF" width="2.61" height="7.41"/>
<rect x="873.13" y="194.88" fill="#FFFFFF" width="2.6" height="7.41"/>
<rect x="873.13" y="208.17" fill="#FFFFFF" width="2.6" height="7.41"/>
<rect x="881.29" y="194.88" fill="#FFFFFF" width="2.6" height="7.41"/>
<rect x="637" y="172.88" fill="#FFFFFF" width="2.79" height="11.56"/>
<rect x="650.91" y="172.88" fill="#FFFFFF" width="2.79" height="11.56"/>
<rect x="664.81" y="172.88" fill="#FFFFFF" width="2.8" height="11.56"/>
<rect x="678.72" y="172.88" fill="#FFFFFF" width="2.8" height="11.56"/>
<rect x="637" y="196.67" fill="#FFFFFF" width="2.79" height="11.55"/>
<rect x="650.91" y="196.67" fill="#FFFFFF" width="2.79" height="11.55"/>
<rect x="664.81" y="196.67" fill="#FFFFFF" width="2.8" height="11.55"/>
<rect x="678.72" y="196.67" fill="#FFFFFF" width="2.8" height="11.55"/>
<rect x="637" y="221.04" fill="#FFFFFF" width="2.79" height="11.55"/>
<rect x="650.91" y="221.04" fill="#FFFFFF" width="2.79" height="11.55"/>
<rect x="664.81" y="221.04" fill="#FFFFFF" width="2.8" height="11.55"/>
<rect x="678.72" y="221.04" fill="#FFFFFF" width="2.8" height="11.55"/>
<rect x="637" y="245.41" fill="#FFFFFF" width="2.79" height="11.56"/>
<rect x="650.91" y="245.41" fill="#FFFFFF" width="2.79" height="11.56"/>
<rect x="664.81" y="245.41" fill="#FFFFFF" width="2.8" height="11.56"/>
<rect x="678.72" y="245.41" fill="#FFFFFF" width="2.8" height="11.56"/>
<rect x="637" y="267.55" fill="#FFFFFF" width="2.79" height="11.55"/>
<rect x="650.91" y="267.55" fill="#FFFFFF" width="2.79" height="11.55"/>
<rect x="664.81" y="267.55" fill="#FFFFFF" width="2.8" height="11.55"/>
<rect x="637" y="292.24" fill="#FFFFFF" width="2.79" height="11.56"/>
<rect x="650.91" y="292.24" fill="#FFFFFF" width="2.79" height="11.56"/>
<rect x="664.81" y="292.24" fill="#FFFFFF" width="2.8" height="11.56"/>
<rect x="678.72" y="267.55" fill="#FFFFFF" width="2.8" height="11.55"/>
<rect x="953.15" y="233.97" fill="#FFFFFF" width="2.86" height="6.63"/>
<rect x="953.15" y="244.68" fill="#FFFFFF" width="2.86" height="6.63"/>
<rect x="960.48" y="233.97" fill="#FFFFFF" width="2.85" height="6.63"/>
</svg>
