<!-- Generated by IcoMoon.io -->
<svg version="1.1" xmlns="http://www.w3.org/2000/svg" width="1024" height="1024" viewBox="0 0 1024 1024">
<title></title>
<g id="icomoon-ignore">
</g>
<path fill="#000" d="M919.598 589.995c32.551-18.724 50.472-44.899 50.472-73.714 0-28.793-17.942-54.968-50.472-73.692l-739.54-428.052c-14.312-7.958-28.286-12.687-41.564-14.27-8.823-1.055-33.521 1.182-41.965 3.926-17.605 5.699-42.747 23.621-42.599 82.41v844.157c4.348 53.512 16.909 67.613 21.299 72.046 13.911 14.058 31.157 21.194 51.295 21.194 0 0 0 0 0 0 15.557 0 32.551-4.243 51.949-12.982 0.654-0.296 1.308-0.612 1.921-0.972zM686.532 353.319l-120.639 121.61-436.77-433.098c8.781 0.168 51.19 21.49 51.19 21.49l506.22 289.998zM134.927 980.558l429.129-432.402 120.175 120.998-484.774 281.005c0 0-57.058 29.215-64.531 30.398zM898.975 553.138l-170.731 92.775-134.381-135.436 130.582-131.616 174.088 100.311c18.618 10.723 29.321 24.234 29.321 37.11 0 12.855-10.702 26.386-28.877 36.856z"></path>
</svg>
