<!-- Generated by IcoMoon.io -->
<svg version="1.1" xmlns="http://www.w3.org/2000/svg" width="1024" height="1024" viewBox="0 0 1024 1024">
<title></title>
<g id="icomoon-ignore">
</g>
<path fill="#000" d="M662.171 164.253c34.889-43.905 58.801-103.687 52.333-164.253-50.57 2.352-113.88 35.085-150.336 78.011-32.145 37.829-60.958 99.767-53.51 158.176 56.841 4.116 115.055-28.813 151.512-71.934zM790.163 544.699c-1.176-129.364 105.451-192.478 110.351-195.417-60.37-88.399-154.060-100.354-186.989-101.334-78.598-8.428-154.844 47.237-195.026 47.237-40.769 0-102.511-46.453-168.957-45.082-85.655 1.372-165.624 50.961-209.53 128.188-90.555 157.588-22.932 388.875 63.701 516.279 43.513 62.33 94.279 131.912 160.724 129.364 64.878-2.548 89.182-41.553 167.584-41.553 77.618 0 100.55 41.553 168.173 39.985 69.778-0.98 113.683-62.526 155.629-125.444 50.177-71.346 70.366-141.908 71.15-145.436-1.764-0.588-135.439-51.941-136.812-206.786z"></path>
</svg>
