<!-- Generated by IcoMoon.io -->
<svg version="1.1" xmlns="http://www.w3.org/2000/svg" width="1024" height="1024" viewBox="0 0 1024 1024">
<title></title>
<g id="icomoon-ignore">
</g>
<path fill="#000" d="M740.47 243.948l1.142-1.142z"></path>
<path fill="#000" d="M1019.274 496.443c-3.269-4.726-65.733-94.247-166.557-177.506l-66.678-48.797-64.394-37.061c-70.499-35.958-140.918-55.257-209.644-55.257-285.538 0-498.216 305.624-507.274 318.621-6.302 9.452-6.302 22.055 0 31.114 3.663 5.514 80.384 115.909 202.594 205.824l-0.552 0.354c132.923 98.461 247.926 112.443 305.231 112.443 285.144 0 498.216-305.624 507.274-318.621 6.302-9.059 6.302-21.662 0-31.114zM512 791.434c-80.621 0.748-148.913-14.021-238.552-78.493l0.275-0.275c-106.339-68.923-184.714-164.234-212.677-200.468 44.899-58.289 228.825-279.237 450.954-279.237 55.729 0 113.388 14.651 171.52 41.905 4.333 2.482 9.846 5.829 16.266 9.768l0.118 0.079c41.039 16.62 98.028 62.503 108.938 69.593 76.209 61.204 131.663 128.552 154.112 157.893-44.899 58.289-228.825 277.11-450.954 279.237z"></path>
<path fill="#000" d="M513.103 305.231c-115.555 0-209.251 93.657-209.251 209.251s93.657 209.251 209.251 209.251c115.555 0 209.251-93.657 209.251-209.251s-93.735-209.251-209.251-209.251zM513.891 669.538c-86.095 0-155.884-69.79-155.884-155.884s69.79-155.884 155.884-155.884c86.095 0 155.884 69.79 155.884 155.884 0.039 86.095-69.79 155.884-155.884 155.884z"></path>
</svg>
