<!-- Generated by IcoMoon.io -->
<svg version="1.1" xmlns="http://www.w3.org/2000/svg" width="1024" height="1024" viewBox="0 0 1024 1024">
<title></title>
<g id="icomoon-ignore">
</g>
<path fill="#000" d="M356.037 512.048c0-86.646 70.105-156.751 155.963-156.751 32.296 0 63.016 9.846 89.009 28.357l-216.615 217.797c-18.511-25.994-28.357-57.107-28.357-89.403zM273.724 712.516c-106.338-68.923-184.714-164.234-212.677-200.468 44.898-58.289 228.825-279.237 450.953-279.237 61.44 0 125.243 16.935 189.44 50.019l-61.44 61.44c-36.628-28.357-81.132-43.717-128-43.717-116.185 0-210.314 94.917-210.314 211.496 0 47.262 15.36 91.766 43.717 128.788l-71.68 71.68zM401.723 661.317l533.662-536.026c10.634-10.634 10.634-27.963 0-38.597-10.24-10.634-28.357-10.634-38.597 0l-155.175 155.963c-77.194-42.929-154.387-64.984-229.612-64.984-285.538 0-498.216 305.624-507.275 318.621-6.301 9.452-6.301 22.055 0 31.114 3.938 5.908 91.766 132.332 229.612 224.886l-145.723 146.117c-10.634 10.634-10.634 27.963 0 38.991 5.12 5.12 12.209 7.877 19.299 7.877 7.483 0 14.178-2.757 19.299-7.877l274.51-275.693v-0.394z"></path>
<path fill="#000" d="M512.001 668.405c-15.36 0-30.72-2.363-44.898-6.695l-42.141 42.535c26.782 12.209 56.32 19.299 87.040 19.299 116.185 0 210.314-94.917 210.314-211.496 0-30.72-6.695-60.653-18.905-87.827l-42.141 42.535c4.333 14.572 6.695 29.539 6.695 45.292 0 86.252-70.105 156.357-155.963 156.357z"></path>
<path fill="#000" d="M1019.274 496.295c-3.544-5.12-76.012-109.095-191.409-197.317l-38.991 39.385c86.646 64.984 149.662 141.785 174.080 173.686-44.898 58.289-228.825 279.237-450.953 279.237-47.262 0-95.311-10.24-144.542-29.539l-40.96 41.354c62.227 28.357 124.456 42.929 185.501 42.929 285.145 0 498.216-305.624 507.275-318.621 6.301-9.058 6.301-21.662 0-31.114z"></path>
</svg>
